<svg xmlns="http://www.w3.org/2000/svg" width="117.383" height="109" viewBox="0 0 117.383 109">
  <g id="Icon_ionic-md-analytics" data-name="Icon ionic-md-analytics" transform="translate(-2.25 -3.375)">
    <path id="Path_12" data-name="Path 12" d="M93.254,14.147,70.411,49.091a12.444,12.444,0,0,1,2.829,7.937,12.574,12.574,0,0,1-25.148,0A13.778,13.778,0,0,1,48.3,54.7L33.213,45.922a12.5,12.5,0,0,1-8.723,3.51,12.644,12.644,0,0,1-6.182-1.624L2.25,62.844V77.828A11.213,11.213,0,0,0,13.436,89.014h95.012a11.213,11.213,0,0,0,11.186-11.186V22.136l-15.351-10.19a12.508,12.508,0,0,1-7.7,2.646A12.592,12.592,0,0,1,93.254,14.147Z" transform="translate(0 23.361)" fill="#00a1ed"/>
    <path id="Path_13" data-name="Path 13" d="M24.516,47.646A12.577,12.577,0,0,1,37.09,60.22c0,.55-.052,1.1-.1,1.624l15.744,8.8a12.462,12.462,0,0,1,7.963-2.829,13.157,13.157,0,0,1,2.724.288L86.312,32.636a12.441,12.441,0,0,1-2.331-7.282,12.574,12.574,0,0,1,25.148,0,13.666,13.666,0,0,1-.341,2.96l10.819,7.23V14.561A11.213,11.213,0,0,0,108.421,3.375H13.436A11.213,11.213,0,0,0,2.25,14.561V74.627L12.728,64.594A12.573,12.573,0,0,1,24.516,47.646Z" transform="translate(0 0)" fill="#00a1ed"/>
  </g>
</svg>
