<svg xmlns="http://www.w3.org/2000/svg" width="118.102" height="118.102" viewBox="0 0 118.102 118.102">
  <path id="Icon_ionic-ios-analytics" data-name="Icon ionic-ios-analytics" d="M62.426,3.375a59.051,59.051,0,1,0,59.051,59.051A59.042,59.042,0,0,0,62.426,3.375Zm-51.1,59.051a51.11,51.11,0,0,1,87.242-36.14A50.822,50.822,0,0,1,113.5,60.268c-2.5-2.924-6.87-6.814-12.435-6.814-7.807,0-11.839,7.3-14.479,12.122-.4.71-.767,1.391-1.107,1.987-3.236,5.451-7.75,8.517-12.066,8.2-3.8-.256-7.041-3.18-9.142-8.176-2.612-6.274-8.261-13-15.018-13.968-3.208-.454-7.978.227-12.69,6.075-.908,1.136-1.959,2.669-3.151,4.429-2.953,4.4-7.438,11.015-10.817,11.583-4.911.795-8.772-2.129-10.334-3.492A50.916,50.916,0,0,1,11.324,62.426Z" transform="translate(-3.375 -3.375)" fill="#00a1ed"/>
</svg>
