<svg xmlns="http://www.w3.org/2000/svg" width="71.815" height="87.642" viewBox="0 0 71.815 87.642">
  <path id="Icon_simple-graphql" data-name="Icon simple-graphql" d="M44.784,10.046,61.376,20.454a6.813,6.813,0,0,1,10.194-.281,7.784,7.784,0,0,1,1.268,1.742,8.211,8.211,0,0,1-2.676,10.692,6.841,6.841,0,0,1-1.876.814V54.232c3.853,1,6.233,5.2,5.312,9.381a8.194,8.194,0,0,1-.78,2.122,6.9,6.9,0,0,1-9.841,2.856,7.312,7.312,0,0,1-1.768-1.567L44.716,77.366a7.983,7.983,0,0,1-4.576,9.882,6.709,6.709,0,0,1-2.253.394c-3.971,0-7.192-3.487-7.195-7.8a8.446,8.446,0,0,1,.3-2.224l-16.6-10.4a6.8,6.8,0,0,1-10.174.256,8.3,8.3,0,0,1-.235-11.05,7.1,7.1,0,0,1,3.51-2.2l0-20.811c-3.866-1.008-6.247-5.233-5.316-9.436a8.232,8.232,0,0,1,.753-2.067,6.9,6.9,0,0,1,9.841-2.856,7.118,7.118,0,0,1,1.614,1.377l16.6-10.408a7.931,7.931,0,0,1,4.845-9.7A6.644,6.644,0,0,1,37.888,0c3.971,0,7.192,3.484,7.195,7.793A8.447,8.447,0,0,1,44.784,10.046Zm-1.732,3.2a2.794,2.794,0,0,1-.2.212L64.58,54.324c.087-.033.188-.058.276-.084V33.4c-3.85-1.033-6.193-5.266-5.238-9.451.02-.088.04-.179.064-.263L43.052,13.249Zm-10.137.215-.2-.219L16.084,23.66a7.916,7.916,0,0,1-4.912,9.659c-.087.029-.171.051-.256.077V54.24l.282.084L32.922,13.46l-.007,0Zm6.98,1.851a6.7,6.7,0,0,1-4.008,0L14.168,56.175a8.105,8.105,0,0,1,2.017,3.8H59.594a8.035,8.035,0,0,1,2.027-3.812L39.895,15.316ZM43.21,74.573,59.728,64.209c-.05-.172-.091-.343-.128-.519H16.175l-.071.3L32.71,74.408a6.822,6.822,0,0,1,10.5.164Z" transform="translate(-1.98)" fill="#72c04c"/>
</svg>
