<svg xmlns="http://www.w3.org/2000/svg" width="76.396" height="70.519" viewBox="0 0 76.396 70.519">
  <path id="Icon_ionic-md-business" data-name="Icon ionic-md-business" d="M42.491,20.165V4.5H3.375V75.019h76.4V20.165ZM19.021,67.177H11.2V59.336h7.823Zm0-15.665H11.2V43.671h7.823Zm0-15.665H11.2V28.006h7.823Zm0-15.683H11.2V12.323h7.823ZM34.668,67.177H26.845V59.336h7.823Zm0-15.665H26.845V43.671h7.823Zm0-15.665H26.845V28.006h7.823Zm0-15.683H26.845V12.323h7.823Zm37.28,47.013H42.491V59.336h7.823V51.513H42.491V43.671h7.823V35.83H42.491V28.006H71.947Zm-6.9-31.329H57.219v7.842h7.823Zm0,15.665H57.219v7.842h7.823Z" transform="translate(-3.375 -4.5)" fill="#00a1cb"/>
</svg>
